<?xml version="1.0" encoding="UTF-8" standalone="no"?>
<!DOCTYPE svg PUBLIC "-//W3C//DTD SVG 1.1//EN"
 "http://www.w3.org/Graphics/SVG/1.1/DTD/svg11.dtd">
<!-- Generated by graphviz version 16.1.0 (0)
 -->
<!-- Title: G Pages: 1 -->
<svg width="697pt" height="874pt"
 viewBox="0.00 0.00 697.00 874.00" xmlns="http://www.w3.org/2000/svg" xmlns:xlink="http://www.w3.org/1999/xlink">
<g id="graph0" class="graph" transform="scale(1 1) rotate(0) translate(10.8 863.2)">
<title>G</title>
<!-- T1 -->
<g id="node1" class="node">
<title>T1</title>
<polygon fill="none" stroke="#344054" points="265.35,-776 265.35,-834.4 320.04,-834.4 320.04,-776 265.35,-776"/>
<polygon fill="#e4e7ec" stroke="none" points="266.35,-813 266.35,-833.4 319.04,-833.4 319.04,-813 266.35,-813"/>
<text xml:space="preserve" text-anchor="start" x="271.36" y="-820.6" font-family="Arial" font-weight="bold" font-size="12.00">tenants</text>
<text xml:space="preserve" text-anchor="start" x="269.35" y="-800" font-family="Arial" font-size="10.00">id (uuidv7)</text>
<text xml:space="preserve" text-anchor="start" x="269.35" y="-782" font-family="Arial" font-size="10.00">name</text>
</g>
<!-- T2 -->
<g id="node2" class="node">
<title>T2</title>
<polygon fill="none" stroke="#344054" points="342.12,-758 342.12,-852.4 391.27,-852.4 391.27,-758 342.12,-758"/>
<polygon fill="#e4e7ec" stroke="none" points="343.12,-831 343.12,-851.4 390.27,-851.4 390.27,-831 343.12,-831"/>
<text xml:space="preserve" text-anchor="start" x="350.68" y="-838.6" font-family="Arial" font-weight="bold" font-size="12.00">users</text>
<text xml:space="preserve" text-anchor="start" x="346.12" y="-818" font-family="Arial" font-size="10.00">id</text>
<text xml:space="preserve" text-anchor="start" x="346.12" y="-800" font-family="Arial" font-size="10.00">tenant_id</text>
<text xml:space="preserve" text-anchor="start" x="346.12" y="-782" font-family="Arial" font-size="10.00">email</text>
<text xml:space="preserve" text-anchor="start" x="346.12" y="-764" font-family="Arial" font-size="10.00">role</text>
</g>
<!-- T1&#45;&gt;T2 -->
<g id="edge1" class="edge">
<title>T1&#45;&gt;T2</title>
<path fill="none" stroke="#5a6675" stroke-width="1.4" d="M319.87,-805.2C324.63,-805.2 329.4,-805.2 334.16,-805.2"/>
<polygon fill="#5a6675" stroke="#5a6675" stroke-width="1.4" points="334.21,-805.2 341.71,-808.58 338.43,-805.2 341.25,-805.2 341.25,-805.2 341.25,-805.2 338.43,-805.2 341.71,-801.83 334.21,-805.2"/>
</g>
<!-- T3 -->
<g id="node3" class="node">
<title>T3</title>
<polygon fill="none" stroke="#344054" points="259.79,-595.6 259.79,-726 325.6,-726 325.6,-595.6 259.79,-595.6"/>
<polygon fill="#e4e7ec" stroke="none" points="260.79,-704.6 260.79,-725 324.6,-725 324.6,-704.6 260.79,-704.6"/>
<text xml:space="preserve" text-anchor="start" x="279.02" y="-712.2" font-family="Arial" font-weight="bold" font-size="12.00">sites</text>
<text xml:space="preserve" text-anchor="start" x="263.79" y="-691.6" font-family="Arial" font-size="10.00">id</text>
<text xml:space="preserve" text-anchor="start" x="263.79" y="-673.6" font-family="Arial" font-size="10.00">tenant_id</text>
<text xml:space="preserve" text-anchor="start" x="263.79" y="-655.6" font-family="Arial" font-size="10.00">base_url</text>
<text xml:space="preserve" text-anchor="start" x="263.79" y="-637.6" font-family="Arial" font-size="10.00">languages</text>
<text xml:space="preserve" text-anchor="start" x="263.79" y="-619.6" font-family="Arial" font-size="10.00">is_ymyl</text>
<text xml:space="preserve" text-anchor="start" x="263.79" y="-601.6" font-family="Arial" font-size="10.00">gsc_property</text>
</g>
<!-- T1&#45;&gt;T3 -->
<g id="edge2" class="edge">
<title>T1&#45;&gt;T3</title>
<path fill="none" stroke="#5a6675" stroke-width="1.4" d="M292.69,-776.07C292.69,-763.78 292.69,-748.75 292.69,-733.69"/>
<polygon fill="#5a6675" stroke="#5a6675" stroke-width="1.4" points="292.69,-733.79 296.07,-726.29 292.69,-729.57 292.69,-726.75 292.69,-726.75 292.69,-726.75 292.69,-729.57 289.32,-726.29 292.69,-733.79"/>
</g>
<!-- O1 -->
<g id="node4" class="node">
<title>O1</title>
<polygon fill="none" stroke="#6941c6" points="347.35,-622.6 347.35,-699 414.04,-699 414.04,-622.6 347.35,-622.6"/>
<polygon fill="#ece4fb" stroke="none" points="348.35,-677.6 348.35,-698 413.04,-698 413.04,-677.6 348.35,-677.6"/>
<text xml:space="preserve" text-anchor="start" x="351.35" y="-685.2" font-family="Arial" font-weight="bold" font-size="12.00">schedules</text>
<text xml:space="preserve" text-anchor="start" x="351.35" y="-664.6" font-family="Arial" font-size="10.00">site_id</text>
<text xml:space="preserve" text-anchor="start" x="351.35" y="-646.6" font-family="Arial" font-size="10.00">kind, cron</text>
<text xml:space="preserve" text-anchor="start" x="351.35" y="-628.6" font-family="Arial" font-size="10.00">next_run</text>
</g>
<!-- T3&#45;&gt;O1 -->
<g id="edge3" class="edge">
<title>T3&#45;&gt;O1</title>
<path fill="none" stroke="#5a6675" stroke-width="1.4" d="M325.35,-660.8C330.06,-660.8 334.77,-660.8 339.48,-660.8"/>
<polygon fill="#5a6675" stroke="#5a6675" stroke-width="1.4" points="339.43,-660.8 346.93,-664.18 343.65,-660.8 346.47,-660.8 346.47,-660.8 346.47,-660.8 343.65,-660.8 346.93,-657.43 339.43,-660.8"/>
</g>
<!-- I1 -->
<g id="node5" class="node">
<title>I1</title>
<polygon fill="none" stroke="#0b2a4a" points="255.06,-433.2 255.06,-563.6 330.33,-563.6 330.33,-433.2 255.06,-433.2"/>
<polygon fill="#dbe7f5" stroke="none" points="256.06,-542.2 256.06,-562.6 329.33,-562.6 329.33,-542.2 256.06,-542.2"/>
<text xml:space="preserve" text-anchor="start" x="275.35" y="-549.8" font-family="Arial" font-weight="bold" font-size="12.00">pages</text>
<text xml:space="preserve" text-anchor="start" x="259.06" y="-529.2" font-family="Arial" font-size="10.00">id</text>
<text xml:space="preserve" text-anchor="start" x="259.06" y="-511.2" font-family="Arial" font-size="10.00">site_id</text>
<text xml:space="preserve" text-anchor="start" x="259.06" y="-493.2" font-family="Arial" font-size="10.00">url, language</text>
<text xml:space="preserve" text-anchor="start" x="259.06" y="-475.2" font-family="Arial" font-size="10.00">page_type</text>
<text xml:space="preserve" text-anchor="start" x="259.06" y="-457.2" font-family="Arial" font-size="10.00">hreflang_group</text>
<text xml:space="preserve" text-anchor="start" x="259.06" y="-439.2" font-family="Arial" font-size="10.00">status</text>
</g>
<!-- T3&#45;&gt;I1 -->
<g id="edge4" class="edge">
<title>T3&#45;&gt;I1</title>
<path fill="none" stroke="#5a6675" stroke-width="1.4" d="M292.69,-595.94C292.69,-587.95 292.69,-579.73 292.69,-571.62"/>
<polygon fill="#5a6675" stroke="#5a6675" stroke-width="1.4" points="292.69,-571.53 296.07,-564.03 292.69,-567.31 292.69,-564.5 292.69,-564.5 292.69,-564.5 292.69,-567.31 289.32,-564.03 292.69,-571.53"/>
</g>
<!-- A1 -->
<g id="node6" class="node">
<title>A1</title>
<polygon fill="none" stroke="#b42318" points="473.4,-442.2 473.4,-554.6 551.99,-554.6 551.99,-442.2 473.4,-442.2"/>
<polygon fill="#fbe1de" stroke="none" points="474.4,-533.2 474.4,-553.6 550.99,-553.6 550.99,-533.2 474.4,-533.2"/>
<text xml:space="preserve" text-anchor="start" x="482.02" y="-540.8" font-family="Arial" font-weight="bold" font-size="12.00">audit_runs</text>
<text xml:space="preserve" text-anchor="start" x="477.4" y="-520.2" font-family="Arial" font-size="10.00">id</text>
<text xml:space="preserve" text-anchor="start" x="477.4" y="-502.2" font-family="Arial" font-size="10.00">site_id</text>
<text xml:space="preserve" text-anchor="start" x="477.4" y="-484.2" font-family="Arial" font-size="10.00">kind</text>
<text xml:space="preserve" text-anchor="start" x="477.4" y="-466.2" font-family="Arial" font-size="10.00">code_version</text>
<text xml:space="preserve" text-anchor="start" x="477.4" y="-448.2" font-family="Arial" font-size="10.00">started, finished</text>
</g>
<!-- T3&#45;&gt;A1 -->
<g id="edge5" class="edge">
<title>T3&#45;&gt;A1</title>
<path fill="none" stroke="#5a6675" stroke-width="1.4" d="M325.49,-605.22C328.97,-601.65 332.71,-598.38 336.69,-595.6 384.07,-562.53 414.33,-595.21 462.69,-563.6 464.58,-562.37 466.42,-561.04 468.22,-559.63"/>
<polygon fill="#5a6675" stroke="#5a6675" stroke-width="1.4" points="468.11,-559.74 476.01,-557.45 471.32,-557 473.46,-555.18 473.46,-555.18 473.46,-555.18 471.32,-557 471.63,-552.31 468.11,-559.74"/>
</g>
<!-- G3 -->
<g id="node9" class="node">
<title>G3</title>
<polygon fill="none" stroke="#0b5cad" points="142.02,-451.2 142.02,-545.6 233.37,-545.6 233.37,-451.2 142.02,-451.2"/>
<polygon fill="#e1ecfb" stroke="none" points="143.02,-524.2 143.02,-544.6 232.37,-544.6 232.37,-524.2 143.02,-524.2"/>
<text xml:space="preserve" text-anchor="start" x="160.01" y="-531.8" font-family="Arial" font-weight="bold" font-size="12.00">gsc_rows</text>
<text xml:space="preserve" text-anchor="start" x="146.02" y="-511.2" font-family="Arial" font-size="10.00">site_id, date</text>
<text xml:space="preserve" text-anchor="start" x="146.02" y="-493.2" font-family="Arial" font-size="10.00">page, query</text>
<text xml:space="preserve" text-anchor="start" x="146.02" y="-475.2" font-family="Arial" font-size="10.00">clicks, impressions</text>
<text xml:space="preserve" text-anchor="start" x="146.02" y="-457.2" font-family="Arial" font-size="10.00">ctr, position</text>
</g>
<!-- T3&#45;&gt;G3 -->
<g id="edge6" class="edge">
<title>T3&#45;&gt;G3</title>
<path fill="none" stroke="#5a6675" stroke-width="1.4" d="M260.05,-609.93C248.04,-591.58 234.4,-570.75 222.23,-552.16"/>
<polygon fill="#5a6675" stroke="#5a6675" stroke-width="1.4" points="222.18,-552.08 220.9,-543.96 219.87,-548.56 218.33,-546.2 218.33,-546.2 218.33,-546.2 219.87,-548.56 215.25,-547.66 222.18,-552.08"/>
</g>
<!-- I2 -->
<g id="node10" class="node">
<title>I2</title>
<polygon fill="none" stroke="#0b2a4a" points="123.35,-288.8 123.35,-401.2 226.04,-401.2 226.04,-288.8 123.35,-288.8"/>
<polygon fill="#dbe7f5" stroke="none" points="124.35,-379.8 124.35,-400.2 225.04,-400.2 225.04,-379.8 124.35,-379.8"/>
<text xml:space="preserve" text-anchor="start" x="127.35" y="-387.4" font-family="Arial" font-weight="bold" font-size="12.00">page_snapshots</text>
<text xml:space="preserve" text-anchor="start" x="127.35" y="-366.8" font-family="Arial" font-size="10.00">page_id, fetched_at</text>
<text xml:space="preserve" text-anchor="start" x="127.35" y="-348.8" font-family="Arial" font-size="10.00">http_status</text>
<text xml:space="preserve" text-anchor="start" x="127.35" y="-330.8" font-family="Arial" font-size="10.00">title, meta, h1</text>
<text xml:space="preserve" text-anchor="start" x="127.35" y="-312.8" font-family="Arial" font-size="10.00">canonical, hreflang</text>
<text xml:space="preserve" text-anchor="start" x="127.35" y="-294.8" font-family="Arial" font-size="10.00">text_hash</text>
</g>
<!-- I1&#45;&gt;I2 -->
<g id="edge7" class="edge">
<title>I1&#45;&gt;I2</title>
<path fill="none" stroke="#5a6675" stroke-width="1.4" d="M255.13,-446.81C251.62,-442.19 248.1,-437.6 244.69,-433.2 238.19,-424.8 231.26,-416.01 224.4,-407.38"/>
<polygon fill="#5a6675" stroke="#5a6675" stroke-width="1.4" points="224.39,-407.36 222.35,-399.39 221.76,-404.06 220,-401.86 220,-401.86 220,-401.86 221.76,-404.06 217.07,-403.6 224.39,-407.36"/>
</g>
<!-- C1 -->
<g id="node11" class="node">
<title>C1</title>
<polygon fill="none" stroke="#2e7d4f" points="247.56,-288.8 247.56,-401.2 337.83,-401.2 337.83,-288.8 247.56,-288.8"/>
<polygon fill="#dcf2e3" stroke="none" points="248.56,-379.8 248.56,-400.2 336.83,-400.2 336.83,-379.8 248.56,-379.8"/>
<text xml:space="preserve" text-anchor="start" x="252.02" y="-387.4" font-family="Arial" font-weight="bold" font-size="12.00">content_items</text>
<text xml:space="preserve" text-anchor="start" x="251.56" y="-366.8" font-family="Arial" font-size="10.00">id</text>
<text xml:space="preserve" text-anchor="start" x="251.56" y="-348.8" font-family="Arial" font-size="10.00">page_id</text>
<text xml:space="preserve" text-anchor="start" x="251.56" y="-330.8" font-family="Arial" font-size="10.00">field</text>
<text xml:space="preserve" text-anchor="start" x="251.56" y="-312.8" font-family="Arial" font-size="10.00">current_version_id</text>
<text xml:space="preserve" text-anchor="start" x="251.56" y="-294.8" font-family="Arial" font-size="10.00">current_state</text>
</g>
<!-- I1&#45;&gt;C1 -->
<g id="edge8" class="edge">
<title>I1&#45;&gt;C1</title>
<path fill="none" stroke="#5a6675" stroke-width="1.4" d="M292.69,-433.63C292.69,-425.51 292.69,-417.2 292.69,-409.09"/>
<polygon fill="#5a6675" stroke="#5a6675" stroke-width="1.4" points="292.69,-409.03 296.07,-401.53 292.69,-404.81 292.69,-402 292.69,-402 292.69,-402 292.69,-404.81 289.32,-401.53 292.69,-409.03"/>
</g>
<!-- G2 -->
<g id="node13" class="node">
<title>G2</title>
<polygon fill="none" stroke="#0b5cad" points="359.34,-306.8 359.34,-383.2 482.05,-383.2 482.05,-306.8 359.34,-306.8"/>
<polygon fill="#e1ecfb" stroke="none" points="360.34,-361.8 360.34,-382.2 481.05,-382.2 481.05,-361.8 360.34,-361.8"/>
<text xml:space="preserve" text-anchor="start" x="363.34" y="-369.4" font-family="Arial" font-weight="bold" font-size="12.00">keyword_page_map</text>
<text xml:space="preserve" text-anchor="start" x="363.34" y="-348.8" font-family="Arial" font-size="10.00">keyword_id</text>
<text xml:space="preserve" text-anchor="start" x="363.34" y="-330.8" font-family="Arial" font-size="10.00">page_id</text>
<text xml:space="preserve" text-anchor="start" x="363.34" y="-312.8" font-family="Arial" font-size="10.00">role (primary/secondary)</text>
</g>
<!-- I1&#45;&gt;G2 -->
<g id="edge12" class="edge">
<title>I1&#45;&gt;G2</title>
<path fill="none" stroke="#5a6675" stroke-width="1.4" d="M330.06,-453.2C347.11,-433.03 367.24,-409.23 384.18,-389.18"/>
<polygon fill="#5a6675" stroke="#5a6675" stroke-width="1.4" points="384.19,-389.18 391.61,-385.63 386.91,-385.96 388.73,-383.81 388.73,-383.81 388.73,-383.81 386.91,-385.96 386.46,-381.27 384.19,-389.18"/>
</g>
<!-- O3 -->
<g id="node14" class="node">
<title>O3</title>
<polygon fill="none" stroke="#6941c6" points="0,-306.8 0,-383.2 101.39,-383.2 101.39,-306.8 0,-306.8"/>
<polygon fill="#ece4fb" stroke="none" points="1,-361.8 1,-382.2 100.39,-382.2 100.39,-361.8 1,-361.8"/>
<text xml:space="preserve" text-anchor="start" x="22.36" y="-369.4" font-family="Arial" font-weight="bold" font-size="12.00">outcomes</text>
<text xml:space="preserve" text-anchor="start" x="4" y="-348.8" font-family="Arial" font-size="10.00">page_id</text>
<text xml:space="preserve" text-anchor="start" x="4" y="-330.8" font-family="Arial" font-size="10.00">published_at</text>
<text xml:space="preserve" text-anchor="start" x="4" y="-312.8" font-family="Arial" font-size="10.00">gsc_before, after_8w</text>
</g>
<!-- I1&#45;&gt;O3 -->
<g id="edge13" class="edge">
<title>I1&#45;&gt;O3</title>
<path fill="none" stroke="#5a6675" stroke-width="1.4" d="M255.29,-441.59C251.95,-438.5 248.41,-435.65 244.69,-433.2 194.31,-399.95 166.16,-429.22 112.69,-401.2 105.8,-397.59 99.06,-393.04 92.71,-388.12"/>
<polygon fill="#5a6675" stroke="#5a6675" stroke-width="1.4" points="92.69,-388.11 88.98,-380.76 89.41,-385.45 87.22,-383.68 87.22,-383.68 87.22,-383.68 89.41,-385.45 84.74,-386.01 92.69,-388.11"/>
</g>
<!-- A2 -->
<g id="node12" class="node">
<title>A2</title>
<polygon fill="none" stroke="#b42318" points="542.67,-297.8 542.67,-392.2 630.71,-392.2 630.71,-297.8 542.67,-297.8"/>
<polygon fill="#fbe1de" stroke="none" points="543.67,-370.8 543.67,-391.2 629.71,-391.2 629.71,-370.8 543.67,-370.8"/>
<text xml:space="preserve" text-anchor="start" x="563.37" y="-378.4" font-family="Arial" font-weight="bold" font-size="12.00">findings</text>
<text xml:space="preserve" text-anchor="start" x="546.67" y="-357.8" font-family="Arial" font-size="10.00">run_id, page_id</text>
<text xml:space="preserve" text-anchor="start" x="546.67" y="-339.8" font-family="Arial" font-size="10.00">rule_id</text>
<text xml:space="preserve" text-anchor="start" x="546.67" y="-321.8" font-family="Arial" font-size="10.00">severity, evidence</text>
<text xml:space="preserve" text-anchor="start" x="546.67" y="-303.8" font-family="Arial" font-size="10.00">status</text>
</g>
<!-- A1&#45;&gt;A2 -->
<g id="edge9" class="edge">
<title>A1&#45;&gt;A2</title>
<path fill="none" stroke="#5a6675" stroke-width="1.4" d="M539.62,-442.31C546.52,-428.2 553.92,-413.05 560.77,-399.05"/>
<polygon fill="#5a6675" stroke="#5a6675" stroke-width="1.4" points="560.79,-399 567.12,-393.74 562.64,-395.21 563.88,-392.68 563.88,-392.68 563.88,-392.68 562.64,-395.21 561.05,-390.78 560.79,-399"/>
</g>
<!-- A3 -->
<g id="node7" class="node">
<title>A3</title>
<polygon fill="none" stroke="#b42318" points="573.99,-451.2 573.99,-545.6 675.4,-545.6 675.4,-451.2 573.99,-451.2"/>
<polygon fill="#fbe1de" stroke="none" points="574.99,-524.2 574.99,-544.6 674.4,-544.6 674.4,-524.2 574.99,-524.2"/>
<text xml:space="preserve" text-anchor="start" x="610.35" y="-531.8" font-family="Arial" font-weight="bold" font-size="12.00">rules</text>
<text xml:space="preserve" text-anchor="start" x="577.99" y="-511.2" font-family="Arial" font-size="10.00">id</text>
<text xml:space="preserve" text-anchor="start" x="577.99" y="-493.2" font-family="Arial" font-size="10.00">page_type, language</text>
<text xml:space="preserve" text-anchor="start" x="577.99" y="-475.2" font-family="Arial" font-size="10.00">source</text>
<text xml:space="preserve" text-anchor="start" x="577.99" y="-457.2" font-family="Arial" font-size="10.00">enabled</text>
</g>
<!-- A3&#45;&gt;A2 -->
<g id="edge10" class="edge">
<title>A3&#45;&gt;A2</title>
<path fill="none" stroke="#5a6675" stroke-width="1.4" d="M613.19,-451.56C609.08,-435.19 604.41,-416.59 600.15,-399.61"/>
<polygon fill="#5a6675" stroke="#5a6675" stroke-width="1.4" points="600.17,-399.67 601.61,-391.57 599.14,-395.58 598.45,-392.85 598.45,-392.85 598.45,-392.85 599.14,-395.58 595.07,-393.22 600.17,-399.67"/>
</g>
<!-- G1 -->
<g id="node8" class="node">
<title>G1</title>
<polygon fill="none" stroke="#0b5cad" points="363.94,-460.2 363.94,-536.6 451.45,-536.6 451.45,-460.2 363.94,-460.2"/>
<polygon fill="#e1ecfb" stroke="none" points="364.94,-515.2 364.94,-535.6 450.45,-535.6 450.45,-515.2 364.94,-515.2"/>
<text xml:space="preserve" text-anchor="start" x="380.01" y="-522.8" font-family="Arial" font-weight="bold" font-size="12.00">keywords</text>
<text xml:space="preserve" text-anchor="start" x="367.94" y="-502.2" font-family="Arial" font-size="10.00">id</text>
<text xml:space="preserve" text-anchor="start" x="367.94" y="-484.2" font-family="Arial" font-size="10.00">text</text>
<text xml:space="preserve" text-anchor="start" x="367.94" y="-466.2" font-family="Arial" font-size="10.00">language, country</text>
</g>
<!-- G1&#45;&gt;G2 -->
<g id="edge11" class="edge">
<title>G1&#45;&gt;G2</title>
<path fill="none" stroke="#5a6675" stroke-width="1.4" d="M410.87,-460.36C412.67,-439.47 414.92,-413.2 416.82,-391.11"/>
<polygon fill="#5a6675" stroke="#5a6675" stroke-width="1.4" points="416.82,-391.12 420.82,-383.93 417.18,-386.92 417.42,-384.11 417.42,-384.11 417.42,-384.11 417.18,-386.92 414.1,-383.36 416.82,-391.12"/>
</g>
<!-- C2 -->
<g id="node15" class="node">
<title>C2</title>
<polygon fill="none" stroke="#2e7d4f" points="162.34,-126.4 162.34,-256.8 277.05,-256.8 277.05,-126.4 162.34,-126.4"/>
<polygon fill="#dcf2e3" stroke="none" points="163.34,-235.4 163.34,-255.8 276.05,-255.8 276.05,-235.4 163.34,-235.4"/>
<text xml:space="preserve" text-anchor="start" x="170.01" y="-243" font-family="Arial" font-weight="bold" font-size="12.00">content_versions</text>
<text xml:space="preserve" text-anchor="start" x="166.34" y="-222.4" font-family="Arial" font-size="10.00">id, item_id</text>
<text xml:space="preserve" text-anchor="start" x="166.34" y="-204.4" font-family="Arial" font-size="10.00">version_no</text>
<text xml:space="preserve" text-anchor="start" x="166.34" y="-186.4" font-family="Arial" font-size="10.00">source (crawl/ai/human)</text>
<text xml:space="preserve" text-anchor="start" x="166.34" y="-168.4" font-family="Arial" font-size="10.00">body_jsonb</text>
<text xml:space="preserve" text-anchor="start" x="166.34" y="-150.4" font-family="Arial" font-size="10.00">major_change</text>
<text xml:space="preserve" text-anchor="start" x="166.34" y="-132.4" font-family="Arial" font-size="10.00">created_by, created_at</text>
</g>
<!-- C1&#45;&gt;C2 -->
<g id="edge14" class="edge">
<title>C1&#45;&gt;C2</title>
<path fill="none" stroke="#5a6675" stroke-width="1.4" d="M266.13,-288.91C262.18,-280.72 258.07,-272.18 253.99,-263.72"/>
<polygon fill="#5a6675" stroke="#5a6675" stroke-width="1.4" points="254.03,-263.82 253.82,-255.6 252.2,-260.02 250.98,-257.48 250.98,-257.48 250.98,-257.48 252.2,-260.02 247.74,-258.53 254.03,-263.82"/>
</g>
<!-- C3 -->
<g id="node16" class="node">
<title>C3</title>
<polygon fill="none" stroke="#2e7d4f" points="299.34,-153.4 299.34,-229.8 430.05,-229.8 430.05,-153.4 299.34,-153.4"/>
<polygon fill="#dcf2e3" stroke="none" points="300.34,-208.4 300.34,-228.8 429.05,-228.8 429.05,-208.4 300.34,-208.4"/>
<text xml:space="preserve" text-anchor="start" x="303.34" y="-216" font-family="Arial" font-weight="bold" font-size="12.00">content_state_events</text>
<text xml:space="preserve" text-anchor="start" x="303.34" y="-195.4" font-family="Arial" font-size="10.00">item_id</text>
<text xml:space="preserve" text-anchor="start" x="303.34" y="-177.4" font-family="Arial" font-size="10.00">from_state, to_state</text>
<text xml:space="preserve" text-anchor="start" x="303.34" y="-159.4" font-family="Arial" font-size="10.00">actor, reason, created_at</text>
</g>
<!-- C1&#45;&gt;C3 -->
<g id="edge15" class="edge">
<title>C1&#45;&gt;C3</title>
<path fill="none" stroke="#5a6675" stroke-width="1.4" d="M318.89,-288.91C327.05,-271.76 335.94,-253.07 343.69,-236.76"/>
<polygon fill="#5a6675" stroke="#5a6675" stroke-width="1.4" points="343.75,-236.65 350.02,-231.32 345.56,-232.84 346.77,-230.3 346.77,-230.3 346.77,-230.3 345.56,-232.84 343.92,-228.42 343.75,-236.65"/>
</g>
<!-- C4 -->
<g id="node18" class="node">
<title>C4</title>
<polygon fill="none" stroke="#2e7d4f" points="170.4,0 170.4,-94.4 268.99,-94.4 268.99,0 170.4,0"/>
<polygon fill="#dcf2e3" stroke="none" points="171.4,-73 171.4,-93.4 267.99,-93.4 267.99,-73 171.4,-73"/>
<text xml:space="preserve" text-anchor="start" x="197.68" y="-80.6" font-family="Arial" font-weight="bold" font-size="12.00">reviews</text>
<text xml:space="preserve" text-anchor="start" x="174.4" y="-60" font-family="Arial" font-size="10.00">version_id</text>
<text xml:space="preserve" text-anchor="start" x="174.4" y="-42" font-family="Arial" font-size="10.00">reviewer</text>
<text xml:space="preserve" text-anchor="start" x="174.4" y="-24" font-family="Arial" font-size="10.00">role (2i/expert/client)</text>
<text xml:space="preserve" text-anchor="start" x="174.4" y="-6" font-family="Arial" font-size="10.00">verdict, comment</text>
</g>
<!-- C2&#45;&gt;C4 -->
<g id="edge16" class="edge">
<title>C2&#45;&gt;C4</title>
<path fill="none" stroke="#5a6675" stroke-width="1.4" d="M219.69,-126.48C219.69,-118.29 219.69,-109.97 219.69,-101.96"/>
<polygon fill="#5a6675" stroke="#5a6675" stroke-width="1.4" points="219.69,-102.04 223.07,-94.54 219.69,-97.82 219.69,-95.01 219.69,-95.01 219.69,-95.01 219.69,-97.82 216.32,-94.54 219.69,-102.04"/>
</g>
<!-- O2 -->
<g id="node17" class="node">
<title>O2</title>
<polygon fill="none" stroke="#6941c6" points="452.33,-144.4 452.33,-238.8 557.06,-238.8 557.06,-144.4 452.33,-144.4"/>
<polygon fill="#ece4fb" stroke="none" points="453.33,-217.4 453.33,-237.8 556.06,-237.8 556.06,-217.4 453.33,-217.4"/>
<text xml:space="preserve" text-anchor="start" x="479.34" y="-225" font-family="Arial" font-weight="bold" font-size="12.00">llm_calls</text>
<text xml:space="preserve" text-anchor="start" x="456.33" y="-204.4" font-family="Arial" font-size="10.00">job_id</text>
<text xml:space="preserve" text-anchor="start" x="456.33" y="-186.4" font-family="Arial" font-size="10.00">model asked/returned</text>
<text xml:space="preserve" text-anchor="start" x="456.33" y="-168.4" font-family="Arial" font-size="10.00">prompt_version</text>
<text xml:space="preserve" text-anchor="start" x="456.33" y="-150.4" font-family="Arial" font-size="10.00">tokens, cost</text>
</g>
</g>
</svg>
