<?xml version="1.0" encoding="UTF-8" standalone="no"?>
<!DOCTYPE svg PUBLIC "-//W3C//DTD SVG 1.1//EN"
 "http://www.w3.org/Graphics/SVG/1.1/DTD/svg11.dtd">
<!-- Generated by graphviz version 16.1.0 (0)
 -->
<!-- Title: G Pages: 1 -->
<svg width="607pt" height="462pt"
 viewBox="0.00 0.00 607.00 462.00" xmlns="http://www.w3.org/2000/svg" xmlns:xlink="http://www.w3.org/1999/xlink">
<g id="graph0" class="graph" transform="scale(1 1) rotate(0) translate(10.8 451.37)">
<title>G</title>
<!-- Q -->
<g id="node1" class="node">
<title>Q</title>
<path fill="#fff8e6" stroke="#8a5a00" stroke-width="1.7" d="M444.76,-58.48C444.76,-58.48 317.9,-58.48 317.9,-58.48 311.9,-58.48 305.9,-52.48 305.9,-46.48 305.9,-46.48 305.9,-18 305.9,-18 305.9,-12 311.9,-6 317.9,-6 317.9,-6 444.76,-6 444.76,-6 450.76,-6 456.76,-12 456.76,-18 456.76,-18 456.76,-46.48 456.76,-46.48 456.76,-52.48 450.76,-58.48 444.76,-58.48"/>
<text xml:space="preserve" text-anchor="start" x="316.98" y="-42.64" font-family="Arial" font-weight="bold" font-size="12.00">Choose one small part</text>
<text xml:space="preserve" text-anchor="start" x="336.58" y="-26.04" font-family="Arial" font-size="10.00" fill="#4a5565">the next useful step,</text>
<text xml:space="preserve" text-anchor="start" x="340.75" y="-14.04" font-family="Arial" font-size="10.00" fill="#4a5565">not a whole phase</text>
</g>
<!-- R1 -->
<g id="node2" class="node">
<title>R1</title>
<polygon fill="#e4eefb" stroke="#0b5cad" stroke-width="1.7" points="221.01,-64.48 100.45,-64.48 100.45,0 221.01,0 221.01,-64.48"/>
<text xml:space="preserve" text-anchor="start" x="127.04" y="-48.64" font-family="Arial" font-weight="bold" font-size="12.00">1. Research</text>
<text xml:space="preserve" text-anchor="start" x="112.65" y="-32.04" font-family="Arial" font-size="10.00" fill="#4a5565">read the cited source,</text>
<text xml:space="preserve" text-anchor="start" x="111.53" y="-20.04" font-family="Arial" font-size="10.00" fill="#4a5565">ask Claude to explain,</text>
<text xml:space="preserve" text-anchor="start" x="121.54" y="-8.04" font-family="Arial" font-size="10.00" fill="#4a5565">write the question</text>
</g>
<!-- Q&#45;&gt;R1 -->
<g id="edge1" class="edge">
<title>Q&#45;&gt;R1</title>
<path fill="none" stroke="#5a6675" stroke-width="1.4" d="M305.1,-32.24C281.13,-32.24 254.78,-32.24 231.23,-32.24"/>
<polygon fill="#5a6675" stroke="#5a6675" stroke-width="1.4" points="231.28,-29.62 223.78,-32.24 231.28,-34.87 231.28,-29.62"/>
</g>
<!-- E1 -->
<g id="node3" class="node">
<title>E1</title>
<polygon fill="#f2f5f9" stroke="#7a8899" stroke-width="1.7" stroke-dasharray="5,2" points="100.86,-249.53 0,-249.53 0,-197.05 100.86,-197.05 100.86,-249.53"/>
<text xml:space="preserve" text-anchor="start" x="11.08" y="-233.69" font-family="Arial" font-weight="bold" font-size="12.00">2. Experiment</text>
<text xml:space="preserve" text-anchor="start" x="13.47" y="-217.09" font-family="Arial" font-size="10.00" fill="#4a5565">throwaway spike</text>
<text xml:space="preserve" text-anchor="start" x="16.52" y="-205.09" font-family="Arial" font-size="10.00" fill="#4a5565">in experiments/</text>
</g>
<!-- R1&#45;&gt;E1 -->
<g id="edge2" class="edge">
<title>R1&#45;&gt;E1</title>
<path fill="none" stroke="#5a6675" stroke-width="1.4" d="M141.77,-65.08C121.92,-99.45 90.89,-153.21 70.6,-188.35"/>
<polygon fill="#5a6675" stroke="#5a6675" stroke-width="1.4" points="68.48,-186.78 67,-194.58 73.02,-189.4 68.48,-186.78"/>
</g>
<!-- E1&#45;&gt;R1 -->
<g id="edge7" class="edge">
<title>E1&#45;&gt;R1</title>
<path fill="none" stroke="#b42318" stroke-width="1.4" stroke-dasharray="5,2" d="M66,-196.32C84.49,-164.29 115.54,-110.51 137.02,-73.3"/>
<polygon fill="#b42318" stroke="#b42318" stroke-width="1.4" points="139.19,-74.8 140.67,-66.99 134.64,-72.17 139.19,-74.8"/>
<text xml:space="preserve" text-anchor="start" x="23.01" y="-135.34" font-family="Arial" font-weight="bold" font-size="11.00" fill="#3b4654"> does not work </text>
</g>
<!-- I1 -->
<g id="node4" class="node">
<title>I1</title>
<polygon fill="#ffffff" stroke="#0b2a4a" stroke-width="1.7" points="231.01,-440.57 90.45,-440.57 90.45,-388.09 231.01,-388.09 231.01,-440.57"/>
<text xml:space="preserve" text-anchor="start" x="124.05" y="-424.73" font-family="Arial" font-weight="bold" font-size="12.00">3. Implement</text>
<text xml:space="preserve" text-anchor="start" x="117.11" y="-408.13" font-family="Arial" font-size="10.00" fill="#4a5565">small PR with tests,</text>
<text xml:space="preserve" text-anchor="start" x="101.53" y="-396.13" font-family="Arial" font-size="10.00" fill="#4a5565">only what the spike proved</text>
</g>
<!-- E1&#45;&gt;I1 -->
<g id="edge3" class="edge">
<title>E1&#45;&gt;I1</title>
<path fill="none" stroke="#5a6675" stroke-width="1.4" d="M66,-250.25C85.54,-284.11 119.1,-342.23 140.58,-379.44"/>
<polygon fill="#5a6675" stroke="#5a6675" stroke-width="1.4" points="138.16,-380.49 144.18,-385.67 142.7,-377.86 138.16,-380.49"/>
<text xml:space="preserve" text-anchor="start" x="67.67" y="-323.11" font-family="Arial" font-weight="bold" font-size="11.00" fill="#3b4654"> works </text>
</g>
<!-- U1 -->
<g id="node5" class="node">
<title>U1</title>
<path fill="#fff8e6" stroke="#8a5a00" stroke-width="1.7" d="M450.46,-440.57C450.46,-440.57 312.21,-440.57 312.21,-440.57 306.21,-440.57 300.21,-434.57 300.21,-428.57 300.21,-428.57 300.21,-400.09 300.21,-400.09 300.21,-394.09 306.21,-388.09 312.21,-388.09 312.21,-388.09 450.46,-388.09 450.46,-388.09 456.46,-388.09 462.46,-394.09 462.46,-400.09 462.46,-400.09 462.46,-428.57 462.46,-428.57 462.46,-434.57 456.46,-440.57 450.46,-440.57"/>
<text xml:space="preserve" text-anchor="start" x="341.32" y="-424.73" font-family="Arial" font-weight="bold" font-size="12.00">4. Understand</text>
<text xml:space="preserve" text-anchor="start" x="311.29" y="-408.13" font-family="Arial" font-size="10.00" fill="#4a5565">Claude walks through the code,</text>
<text xml:space="preserve" text-anchor="start" x="326.85" y="-396.13" font-family="Arial" font-size="10.00" fill="#4a5565">short note in docs/notes/</text>
</g>
<!-- I1&#45;&gt;U1 -->
<g id="edge4" class="edge">
<title>I1&#45;&gt;U1</title>
<path fill="none" stroke="#5a6675" stroke-width="1.4" d="M231.74,-414.33C250.36,-414.33 270.7,-414.33 290.21,-414.33"/>
<polygon fill="#5a6675" stroke="#5a6675" stroke-width="1.4" points="290.09,-416.96 297.59,-414.33 290.09,-411.71 290.09,-416.96"/>
</g>
<!-- UP -->
<g id="node6" class="node">
<title>UP</title>
<polygon fill="#ffffff" stroke="#475467" stroke-width="1.7" points="579.54,-249.53 397.73,-249.53 397.73,-197.05 585.54,-197.05 585.54,-243.53 579.54,-249.53"/>
<polyline fill="none" stroke="#475467" stroke-width="1.7" points="579.54,-249.53 579.54,-243.53"/>
<polyline fill="none" stroke="#475467" stroke-width="1.7" points="585.54,-243.53 579.54,-243.53"/>
<text xml:space="preserve" text-anchor="start" x="439.62" y="-233.69" font-family="Arial" font-weight="bold" font-size="12.00">5. Review the plan</text>
<text xml:space="preserve" text-anchor="start" x="408.81" y="-217.09" font-family="Arial" font-size="10.00" fill="#4a5565">strategy changed? Update PLAN.md,</text>
<text xml:space="preserve" text-anchor="start" x="443.84" y="-205.09" font-family="Arial" font-size="10.00" fill="#4a5565">this PDF and an ADR</text>
</g>
<!-- U1&#45;&gt;UP -->
<g id="edge5" class="edge">
<title>U1&#45;&gt;UP</title>
<path fill="none" stroke="#5a6675" stroke-width="1.4" d="M396.9,-387.37C416.45,-353.52 450.01,-295.39 471.49,-258.18"/>
<polygon fill="#5a6675" stroke="#5a6675" stroke-width="1.4" points="473.61,-259.76 475.08,-251.95 469.06,-257.14 473.61,-259.76"/>
</g>
<!-- UP&#45;&gt;Q -->
<g id="edge6" class="edge">
<title>UP&#45;&gt;Q</title>
<path fill="none" stroke="#5a6675" stroke-width="1.4" d="M476.06,-196.32C456.52,-162.47 422.96,-104.34 401.48,-67.13"/>
<polygon fill="#5a6675" stroke="#5a6675" stroke-width="1.4" points="403.91,-66.09 397.88,-60.91 399.36,-68.71 403.91,-66.09"/>
</g>
</g>
</svg>
