<?xml version="1.0" encoding="UTF-8" standalone="no"?>
<!DOCTYPE svg PUBLIC "-//W3C//DTD SVG 1.1//EN"
 "http://www.w3.org/Graphics/SVG/1.1/DTD/svg11.dtd">
<!-- Generated by graphviz version 16.1.0 (0)
 -->
<!-- Title: G Pages: 1 -->
<svg width="839pt" height="306pt"
 viewBox="0.00 0.00 839.00 306.00" xmlns="http://www.w3.org/2000/svg" xmlns:xlink="http://www.w3.org/1999/xlink">
<g id="graph0" class="graph" transform="scale(1 1) rotate(0) translate(10.8 295.12)">
<title>G</title>
<g id="clust1" class="cluster">
<title>cluster_feat</title>
<path fill="#f3fbf5" stroke="#2e7d4f" stroke-dasharray="5,2" d="M20,-107.16C20,-107.16 797,-107.16 797,-107.16 803,-107.16 809,-113.16 809,-119.16 809,-119.16 809,-188.84 809,-188.84 809,-194.84 803,-200.84 797,-200.84 797,-200.84 20,-200.84 20,-200.84 14,-200.84 8,-194.84 8,-188.84 8,-188.84 8,-119.16 8,-119.16 8,-113.16 14,-107.16 20,-107.16"/>
<text xml:space="preserve" text-anchor="start" x="16" y="-187.94" font-family="Arial" font-weight="bold" font-size="11.00" fill="#3b4654">features/ (each folder: api, service, schemas, models, repository, workflows)</text>
</g>
<!-- MAIN -->
<g id="node1" class="node">
<title>MAIN</title>
<path fill="#e3f4e8" stroke="#2e7d4f" stroke-width="1.7" d="M366.38,-284.32C366.38,-284.32 267.62,-284.32 267.62,-284.32 261.62,-284.32 255.62,-278.32 255.62,-272.32 255.62,-272.32 255.62,-243.84 255.62,-243.84 255.62,-237.84 261.62,-231.84 267.62,-231.84 267.62,-231.84 366.38,-231.84 366.38,-231.84 372.38,-231.84 378.38,-237.84 378.38,-243.84 378.38,-243.84 378.38,-272.32 378.38,-272.32 378.38,-278.32 372.38,-284.32 366.38,-284.32"/>
<text xml:space="preserve" text-anchor="start" x="294.33" y="-268.48" font-family="Arial" font-weight="bold" font-size="12.00">main.py</text>
<text xml:space="preserve" text-anchor="start" x="284.48" y="-251.88" font-family="Arial" font-size="10.00" fill="#4a5565">builds the app,</text>
<text xml:space="preserve" text-anchor="start" x="266.7" y="-239.88" font-family="Arial" font-size="10.00" fill="#4a5565">mounts feature routers</text>
</g>
<!-- F3 -->
<g id="node4" class="node">
<title>F3</title>
<polygon fill="#ffffff" stroke="#0b2a4a" stroke-width="1.7" points="352.81,-169.64 281.19,-169.64 281.19,-117.16 352.81,-117.16 352.81,-169.64"/>
<text xml:space="preserve" text-anchor="start" x="299.33" y="-153.8" font-family="Arial" font-weight="bold" font-size="12.00">audits</text>
<text xml:space="preserve" text-anchor="start" x="292.27" y="-137.2" font-family="Arial" font-size="10.00" fill="#4a5565">rules, runs,</text>
<text xml:space="preserve" text-anchor="start" x="299.77" y="-125.2" font-family="Arial" font-size="10.00" fill="#4a5565">findings</text>
</g>
<!-- MAIN&#45;&gt;F3 -->
<g id="edge1" class="edge">
<title>MAIN&#45;&gt;F3</title>
<path fill="none" stroke="#5a6675" stroke-width="1.4" d="M317,-231.23C317,-224.82 317,-217.66 317,-210.28"/>
<polygon fill="#5a6675" stroke="#5a6675" stroke-width="1.4" points="319.63,-210.46 317,-202.96 314.38,-210.46 319.63,-210.46"/>
</g>
<!-- F1 -->
<g id="node2" class="node">
<title>F1</title>
<polygon fill="#ffffff" stroke="#0b2a4a" stroke-width="1.7" points="99.54,-163.64 18.46,-163.64 18.46,-123.16 99.54,-123.16 99.54,-163.64"/>
<text xml:space="preserve" text-anchor="start" x="45.32" y="-147.8" font-family="Arial" font-weight="bold" font-size="12.00">sites</text>
<text xml:space="preserve" text-anchor="start" x="29.54" y="-131.2" font-family="Arial" font-size="10.00" fill="#4a5565">tenants, sites</text>
</g>
<!-- F2 -->
<g id="node3" class="node">
<title>F2</title>
<polygon fill="#ffffff" stroke="#0b2a4a" stroke-width="1.7" points="210.16,-169.64 121.84,-169.64 121.84,-117.16 210.16,-117.16 210.16,-169.64"/>
<text xml:space="preserve" text-anchor="start" x="138.99" y="-153.8" font-family="Arial" font-weight="bold" font-size="12.00">inventory</text>
<text xml:space="preserve" text-anchor="start" x="139.6" y="-137.2" font-family="Arial" font-size="10.00" fill="#4a5565">sitemap list,</text>
<text xml:space="preserve" text-anchor="start" x="132.92" y="-125.2" font-family="Arial" font-size="10.00" fill="#4a5565">fetch one page</text>
</g>
<!-- F3&#45;&gt;F2 -->
<g id="edge2" class="edge">
<title>F3&#45;&gt;F2</title>
<path fill="none" stroke="#2e7d4f" stroke-width="1.4" stroke-dasharray="5,2" d="M280.64,-143.4C262.63,-143.4 240.5,-143.4 220.51,-143.4"/>
<polygon fill="#2e7d4f" stroke="#2e7d4f" stroke-width="1.4" points="220.52,-140.78 213.02,-143.4 220.52,-146.03 220.52,-140.78"/>
<text xml:space="preserve" text-anchor="middle" x="245.68" y="-149.7" font-family="Arial" font-size="11.00">service.py</text>
</g>
<!-- CORE -->
<g id="node9" class="node">
<title>CORE</title>
<path fill="#efe7fb" stroke="#6941c6" stroke-width="1.7" d="M449.61,-65.6C449.61,-69.22 421.1,-72.16 386,-72.16 350.9,-72.16 322.39,-69.22 322.39,-65.6 322.39,-65.6 322.39,-6.56 322.39,-6.56 322.39,-2.94 350.9,0 386,0 421.1,0 449.61,-2.94 449.61,-6.56 449.61,-6.56 449.61,-65.6 449.61,-65.6"/>
<path fill="none" stroke="#6941c6" stroke-width="1.7" d="M449.61,-65.6C449.61,-61.98 421.1,-59.04 386,-59.04 350.9,-59.04 322.39,-61.98 322.39,-65.6"/>
<text xml:space="preserve" text-anchor="start" x="371.66" y="-46.48" font-family="Arial" font-weight="bold" font-size="12.00">core/</text>
<text xml:space="preserve" text-anchor="start" x="333.47" y="-29.88" font-family="Arial" font-size="10.00" fill="#4a5565">config, db, ids, tenancy,</text>
<text xml:space="preserve" text-anchor="start" x="354.04" y="-17.88" font-family="Arial" font-size="10.00" fill="#4a5565">logging, errors</text>
</g>
<!-- F3&#45;&gt;CORE -->
<g id="edge4" class="edge">
<title>F3&#45;&gt;CORE</title>
<path fill="none" stroke="#5a6675" stroke-width="1.4" d="M340.08,-107.16C345.66,-98.65 351.69,-89.45 357.48,-80.6"/>
<polygon fill="#5a6675" stroke="#5a6675" stroke-width="1.4" points="359.56,-82.23 361.47,-74.52 355.17,-79.35 359.56,-82.23"/>
</g>
<!-- INT -->
<g id="node10" class="node">
<title>INT</title>
<polygon fill="#e4eefb" stroke="#0b5cad" stroke-width="1.7" points="278.5,-68.32 143.5,-68.32 143.5,-3.84 278.5,-3.84 278.5,-68.32"/>
<text xml:space="preserve" text-anchor="start" x="175" y="-52.48" font-family="Arial" font-weight="bold" font-size="12.00">integrations/</text>
<text xml:space="preserve" text-anchor="start" x="155.83" y="-35.88" font-family="Arial" font-size="10.00" fill="#4a5565">http fetch + SSRF guard,</text>
<text xml:space="preserve" text-anchor="start" x="154.58" y="-23.88" font-family="Arial" font-size="10.00" fill="#4a5565">LLM (DeepSeek); Search</text>
<text xml:space="preserve" text-anchor="start" x="166.54" y="-11.88" font-family="Arial" font-size="10.00" fill="#4a5565">Console, CrUX later</text>
</g>
<!-- F3&#45;&gt;INT -->
<g id="edge5" class="edge">
<title>F3&#45;&gt;INT</title>
<path fill="none" stroke="#5a6675" stroke-width="1.4" d="M281.53,-107.16C271.26,-96.96 260,-85.77 249.55,-75.38"/>
<polygon fill="#5a6675" stroke="#5a6675" stroke-width="1.4" points="251.63,-73.74 244.45,-70.32 247.93,-77.47 251.63,-73.74"/>
</g>
<!-- F6 -->
<g id="node5" class="node">
<title>F6</title>
<polygon fill="#ffffff" stroke="#0b2a4a" stroke-width="1.7" points="511.88,-169.64 424.12,-169.64 424.12,-117.16 511.88,-117.16 511.88,-169.64"/>
<text xml:space="preserve" text-anchor="start" x="451.33" y="-153.8" font-family="Arial" font-weight="bold" font-size="12.00">drafts</text>
<text xml:space="preserve" text-anchor="start" x="435.2" y="-137.2" font-family="Arial" font-size="10.00" fill="#4a5565">AI suggestions</text>
<text xml:space="preserve" text-anchor="start" x="441.32" y="-125.2" font-family="Arial" font-size="10.00" fill="#4a5565">(DeepSeek)</text>
</g>
<!-- F6&#45;&gt;F3 -->
<g id="edge3" class="edge">
<title>F6&#45;&gt;F3</title>
<path fill="none" stroke="#2e7d4f" stroke-width="1.4" stroke-dasharray="5,2" d="M423.43,-143.4C404.39,-143.4 382.18,-143.4 362.99,-143.4"/>
<polygon fill="#2e7d4f" stroke="#2e7d4f" stroke-width="1.4" points="363.17,-140.78 355.67,-143.4 363.17,-146.03 363.17,-140.78"/>
<text xml:space="preserve" text-anchor="middle" x="388.47" y="-149.7" font-family="Arial" font-size="11.00">service.py</text>
</g>
<!-- F4 -->
<g id="node6" class="node">
<title>F4</title>
<polygon fill="#f2f5f9" stroke="#7a8899" stroke-width="1.7" stroke-dasharray="5,2" points="626.1,-163.64 533.9,-163.64 533.9,-123.16 626.1,-123.16 626.1,-163.64"/>
<text xml:space="preserve" text-anchor="start" x="544.98" y="-147.8" font-family="Arial" font-weight="bold" font-size="12.00">search_data</text>
<text xml:space="preserve" text-anchor="start" x="561.65" y="-131.2" font-family="Arial" font-size="10.00" fill="#4a5565">Phase 3</text>
</g>
<!-- F5 -->
<g id="node7" class="node">
<title>F5</title>
<polygon fill="#f2f5f9" stroke="#7a8899" stroke-width="1.7" stroke-dasharray="5,2" points="713.75,-163.64 648.25,-163.64 648.25,-123.16 713.75,-123.16 713.75,-163.64"/>
<text xml:space="preserve" text-anchor="start" x="659.33" y="-147.8" font-family="Arial" font-weight="bold" font-size="12.00">content</text>
<text xml:space="preserve" text-anchor="start" x="662.65" y="-131.2" font-family="Arial" font-size="10.00" fill="#4a5565">Phase 3</text>
</g>
<!-- F7 -->
<g id="node8" class="node">
<title>F7</title>
<polygon fill="#f2f5f9" stroke="#7a8899" stroke-width="1.7" stroke-dasharray="5,2" points="798.75,-163.64 735.25,-163.64 735.25,-123.16 798.75,-123.16 798.75,-163.64"/>
<text xml:space="preserve" text-anchor="start" x="746.33" y="-147.8" font-family="Arial" font-weight="bold" font-size="12.00">reports</text>
<text xml:space="preserve" text-anchor="start" x="748.65" y="-131.2" font-family="Arial" font-size="10.00" fill="#4a5565">Phase 6</text>
</g>
<!-- INT&#45;&gt;CORE -->
<g id="edge6" class="edge">
<title>INT&#45;&gt;CORE</title>
<path fill="none" stroke="#5a6675" stroke-width="1.4" d="M279.02,-36.08C290.12,-36.08 301.22,-36.08 312.32,-36.08"/>
<polygon fill="#5a6675" stroke="#5a6675" stroke-width="1.4" points="312.02,-38.71 319.52,-36.08 312.02,-33.46 312.02,-38.71"/>
</g>
</g>
</svg>
