<?xml version="1.0" encoding="UTF-8" standalone="no"?>
<!DOCTYPE svg PUBLIC "-//W3C//DTD SVG 1.1//EN"
 "http://www.w3.org/Graphics/SVG/1.1/DTD/svg11.dtd">
<!-- Generated by graphviz version 16.1.0 (0)
 -->
<!-- Title: G Pages: 1 -->
<svg width="427pt" height="736pt"
 viewBox="0.00 0.00 427.00 736.00" xmlns="http://www.w3.org/2000/svg" xmlns:xlink="http://www.w3.org/1999/xlink">
<g id="graph0" class="graph" transform="scale(1 1) rotate(0) translate(10.8 725.6)">
<title>G</title>
<!-- S -->
<g id="node1" class="node">
<title>S</title>
<path fill="#e3f4e8" stroke="#2e7d4f" stroke-width="1.7" d="M180.22,-714.8C180.22,-714.8 12,-714.8 12,-714.8 6,-714.8 0,-708.8 0,-702.8 0,-702.8 0,-674.32 0,-674.32 0,-668.32 6,-662.32 12,-662.32 12,-662.32 180.22,-662.32 180.22,-662.32 186.22,-662.32 192.22,-668.32 192.22,-674.32 192.22,-674.32 192.22,-702.8 192.22,-702.8 192.22,-708.8 186.22,-714.8 180.22,-714.8"/>
<text xml:space="preserve" text-anchor="start" x="11.08" y="-698.96" font-family="Arial" font-weight="bold" font-size="12.00">1. Paste a URL and a keyword</text>
<text xml:space="preserve" text-anchor="start" x="26.36" y="-682.36" font-family="Arial" font-size="10.00" fill="#4a5565">for example a MyPipit blog post</text>
<text xml:space="preserve" text-anchor="start" x="22.79" y="-670.36" font-family="Arial" font-size="10.00" fill="#4a5565">and &quot;Annapurna base camp trek&quot;</text>
</g>
<!-- G -->
<g id="node2" class="node">
<title>G</title>
<polygon fill="#fff3d6" stroke="#c77700" stroke-width="1.7" points="96.11,-639.32 0.32,-607.56 96.11,-575.8 191.9,-607.56 96.11,-639.32"/>
<text xml:space="preserve" text-anchor="start" x="52.1" y="-609.76" font-family="Arial" font-weight="bold" font-size="12.00">On a registered</text>
<text xml:space="preserve" text-anchor="start" x="82.11" y="-597.76" font-family="Arial" font-weight="bold" font-size="12.00">site?</text>
</g>
<!-- S&#45;&gt;G -->
<g id="edge1" class="edge">
<title>S&#45;&gt;G</title>
<path fill="none" stroke="#5a6675" stroke-width="1.4" d="M96.11,-661.69C96.11,-657.79 96.11,-653.69 96.11,-649.57"/>
<polygon fill="#5a6675" stroke="#5a6675" stroke-width="1.4" points="98.74,-649.62 96.11,-642.12 93.49,-649.62 98.74,-649.62"/>
</g>
<!-- NO -->
<g id="node3" class="node">
<title>NO</title>
<path fill="#fde7e7" stroke="#b42318" stroke-width="1.7" d="M355.05,-633.8C355.05,-633.8 275.17,-633.8 275.17,-633.8 269.17,-633.8 263.17,-627.8 263.17,-621.8 263.17,-621.8 263.17,-593.32 263.17,-593.32 263.17,-587.32 269.17,-581.32 275.17,-581.32 275.17,-581.32 355.05,-581.32 355.05,-581.32 361.05,-581.32 367.05,-587.32 367.05,-593.32 367.05,-593.32 367.05,-621.8 367.05,-621.8 367.05,-627.8 361.05,-633.8 355.05,-633.8"/>
<text xml:space="preserve" text-anchor="start" x="295.1" y="-617.96" font-family="Arial" font-weight="bold" font-size="12.00">Refuse</text>
<text xml:space="preserve" text-anchor="start" x="274.25" y="-601.36" font-family="Arial" font-size="10.00" fill="#4a5565">the tool reads only</text>
<text xml:space="preserve" text-anchor="start" x="281.21" y="-589.36" font-family="Arial" font-size="10.00" fill="#4a5565">registered sites</text>
</g>
<!-- G&#45;&gt;NO -->
<g id="edge2" class="edge">
<title>G&#45;&gt;NO</title>
<path fill="none" stroke="#5a6675" stroke-width="1.4" d="M194.4,-607.56C214.26,-607.56 234.61,-607.56 252.81,-607.56"/>
<polygon fill="#5a6675" stroke="#5a6675" stroke-width="1.4" points="252.78,-610.19 260.28,-607.56 252.78,-604.94 252.78,-610.19"/>
<text xml:space="preserve" text-anchor="start" x="217.15" y="-614.86" font-family="Arial" font-weight="bold" font-size="11.00" fill="#b42318"> No </text>
</g>
<!-- F -->
<g id="node4" class="node">
<title>F</title>
<polygon fill="#ffffff" stroke="#0b2a4a" stroke-width="1.7" points="179.44,-540.6 12.78,-540.6 12.78,-488.12 179.44,-488.12 179.44,-540.6"/>
<text xml:space="preserve" text-anchor="start" x="45.43" y="-524.76" font-family="Arial" font-weight="bold" font-size="12.00">2. Fetch one page</text>
<text xml:space="preserve" text-anchor="start" x="45.25" y="-508.16" font-family="Arial" font-size="10.00" fill="#4a5565">safe fetcher: robots.txt,</text>
<text xml:space="preserve" text-anchor="start" x="23.86" y="-496.16" font-family="Arial" font-size="10.00" fill="#4a5565">rate limit, SSRF guard; snapshot</text>
</g>
<!-- G&#45;&gt;F -->
<g id="edge3" class="edge">
<title>G&#45;&gt;F</title>
<path fill="none" stroke="#5a6675" stroke-width="1.4" d="M96.11,-574.92C96.11,-567.09 96.11,-558.66 96.11,-550.67"/>
<polygon fill="#5a6675" stroke="#5a6675" stroke-width="1.4" points="98.74,-550.83 96.11,-543.33 93.49,-550.83 98.74,-550.83"/>
<text xml:space="preserve" text-anchor="start" x="96.11" y="-555.9" font-family="Arial" font-weight="bold" font-size="11.00" fill="#2e7d4f"> Yes </text>
</g>
<!-- X -->
<g id="node5" class="node">
<title>X</title>
<polygon fill="#ffffff" stroke="#0b2a4a" stroke-width="1.7" points="182.54,-465.12 9.68,-465.12 9.68,-412.64 182.54,-412.64 182.54,-465.12"/>
<text xml:space="preserve" text-anchor="start" x="20.76" y="-449.28" font-family="Arial" font-weight="bold" font-size="12.00">3. Extract the SEO content</text>
<text xml:space="preserve" text-anchor="start" x="31.08" y="-432.68" font-family="Arial" font-size="10.00" fill="#4a5565">title, meta, headings, images,</text>
<text xml:space="preserve" text-anchor="start" x="39.14" y="-420.68" font-family="Arial" font-size="10.00" fill="#4a5565">links, structured data, text</text>
</g>
<!-- F&#45;&gt;X -->
<g id="edge4" class="edge">
<title>F&#45;&gt;X</title>
<path fill="none" stroke="#5a6675" stroke-width="1.4" d="M96.11,-487.66C96.11,-483.66 96.11,-479.46 96.11,-475.29"/>
<polygon fill="#5a6675" stroke="#5a6675" stroke-width="1.4" points="98.74,-475.31 96.11,-467.81 93.49,-475.31 98.74,-475.31"/>
</g>
<!-- A -->
<g id="node6" class="node">
<title>A</title>
<polygon fill="#ffffff" stroke="#0b2a4a" stroke-width="1.7" points="173,-389.64 19.22,-389.64 19.22,-337.16 173,-337.16 173,-389.64"/>
<text xml:space="preserve" text-anchor="start" x="44.44" y="-373.8" font-family="Arial" font-weight="bold" font-size="12.00">4. Audit with rules</text>
<text xml:space="preserve" text-anchor="start" x="36.62" y="-357.2" font-family="Arial" font-size="10.00" fill="#4a5565">each finding: evidence and</text>
<text xml:space="preserve" text-anchor="start" x="30.3" y="-345.2" font-family="Arial" font-size="10.00" fill="#4a5565">source; &quot;unknown&quot; if not seen</text>
</g>
<!-- X&#45;&gt;A -->
<g id="edge5" class="edge">
<title>X&#45;&gt;A</title>
<path fill="none" stroke="#5a6675" stroke-width="1.4" d="M96.11,-412.18C96.11,-408.18 96.11,-403.98 96.11,-399.81"/>
<polygon fill="#5a6675" stroke="#5a6675" stroke-width="1.4" points="98.74,-399.83 96.11,-392.33 93.49,-399.83 98.74,-399.83"/>
</g>
<!-- SG -->
<g id="node7" class="node">
<title>SG</title>
<polygon fill="#ffffff" stroke="#0b2a4a" stroke-width="1.7" points="191.21,-314.16 1.01,-314.16 1.01,-261.68 191.21,-261.68 191.21,-314.16"/>
<text xml:space="preserve" text-anchor="start" x="12.09" y="-298.32" font-family="Arial" font-weight="bold" font-size="12.00">5. AI suggestions (DeepSeek)</text>
<text xml:space="preserve" text-anchor="start" x="41.36" y="-281.72" font-family="Arial" font-size="10.00" fill="#4a5565">facts only from the page,</text>
<text xml:space="preserve" text-anchor="start" x="51.1" y="-269.72" font-family="Arial" font-size="10.00" fill="#4a5565">other facts [ADD: ...]</text>
</g>
<!-- A&#45;&gt;SG -->
<g id="edge6" class="edge">
<title>A&#45;&gt;SG</title>
<path fill="none" stroke="#5a6675" stroke-width="1.4" d="M96.11,-336.7C96.11,-332.7 96.11,-328.5 96.11,-324.33"/>
<polygon fill="#5a6675" stroke="#5a6675" stroke-width="1.4" points="98.74,-324.35 96.11,-316.85 93.49,-324.35 98.74,-324.35"/>
</g>
<!-- CK -->
<g id="node8" class="node">
<title>CK</title>
<polygon fill="#fde7e7" stroke="#b42318" stroke-width="1.7" points="96.11,-238.68 45.66,-206.92 96.11,-175.16 146.56,-206.92 96.11,-238.68"/>
<text xml:space="preserve" text-anchor="start" x="74.77" y="-209.12" font-family="Arial" font-weight="bold" font-size="12.00">Checks</text>
<text xml:space="preserve" text-anchor="start" x="78.77" y="-197.12" font-family="Arial" font-weight="bold" font-size="12.00">pass?</text>
</g>
<!-- SG&#45;&gt;CK -->
<g id="edge7" class="edge">
<title>SG&#45;&gt;CK</title>
<path fill="none" stroke="#5a6675" stroke-width="1.4" d="M96.11,-261.05C96.11,-257.2 96.11,-253.16 96.11,-249.09"/>
<polygon fill="#5a6675" stroke="#5a6675" stroke-width="1.4" points="98.74,-249.26 96.11,-241.76 93.49,-249.26 98.74,-249.26"/>
</g>
<!-- RW -->
<g id="node9" class="node">
<title>RW</title>
<polygon fill="#ffffff" stroke="#0b2a4a" stroke-width="1.7" points="314.54,-227.16 217.69,-227.16 217.69,-186.68 314.54,-186.68 314.54,-227.16"/>
<text xml:space="preserve" text-anchor="start" x="228.77" y="-211.32" font-family="Arial" font-weight="bold" font-size="12.00">Rewrite once</text>
<text xml:space="preserve" text-anchor="start" x="248.6" y="-194.72" font-family="Arial" font-size="10.00" fill="#4a5565">then fail</text>
</g>
<!-- CK&#45;&gt;RW -->
<g id="edge8" class="edge">
<title>CK&#45;&gt;RW</title>
<path fill="none" stroke="#5a6675" stroke-width="1.4" d="M148.04,-206.92C166.84,-206.92 188.19,-206.92 207.51,-206.92"/>
<polygon fill="#5a6675" stroke="#5a6675" stroke-width="1.4" points="207.5,-209.55 215,-206.92 207.5,-204.3 207.5,-209.55"/>
<text xml:space="preserve" text-anchor="start" x="171.74" y="-214.22" font-family="Arial" font-weight="bold" font-size="11.00" fill="#b42318"> No </text>
</g>
<!-- R -->
<g id="node10" class="node">
<title>R</title>
<path fill="#fff8e6" stroke="#8a5a00" stroke-width="1.7" d="M163,-139.96C163,-139.96 29.22,-139.96 29.22,-139.96 23.22,-139.96 17.22,-133.96 17.22,-127.96 17.22,-127.96 17.22,-87.48 17.22,-87.48 17.22,-81.48 23.22,-75.48 29.22,-75.48 29.22,-75.48 163,-75.48 163,-75.48 169,-75.48 175,-81.48 175,-87.48 175,-87.48 175,-127.96 175,-127.96 175,-133.96 169,-139.96 163,-139.96"/>
<text xml:space="preserve" text-anchor="start" x="39.75" y="-124.12" font-family="Arial" font-weight="bold" font-size="12.00">6. A person reviews</text>
<text xml:space="preserve" text-anchor="start" x="28.3" y="-107.52" font-family="Arial" font-size="10.00" fill="#4a5565">accept, edit or reject; copy into</text>
<text xml:space="preserve" text-anchor="start" x="30.24" y="-95.52" font-family="Arial" font-size="10.00" fill="#4a5565">the site editor and save there.</text>
<text xml:space="preserve" text-anchor="start" x="40.24" y="-83.52" font-family="Arial" font-size="10.00" fill="#4a5565">The tool never publishes.</text>
</g>
<!-- CK&#45;&gt;R -->
<g id="edge10" class="edge">
<title>CK&#45;&gt;R</title>
<path fill="none" stroke="#5a6675" stroke-width="1.4" d="M96.11,-174.36C96.11,-166.72 96.11,-158.43 96.11,-150.39"/>
<polygon fill="#5a6675" stroke="#5a6675" stroke-width="1.4" points="98.74,-150.4 96.11,-142.9 93.49,-150.4 98.74,-150.4"/>
<text xml:space="preserve" text-anchor="start" x="96.11" y="-155.26" font-family="Arial" font-weight="bold" font-size="11.00" fill="#2e7d4f"> Yes </text>
</g>
<!-- RW&#45;&gt;CK -->
<g id="edge9" class="edge">
<title>RW&#45;&gt;CK</title>
<path fill="none" stroke="#5a6675" stroke-width="1.4" d="M216.84,-204.6C209.19,-204.32 201.37,-204.07 193.98,-203.92 180.85,-203.65 166.73,-203.81 153.42,-204.18"/>
<polygon fill="#5a6675" stroke="#5a6675" stroke-width="1.4" points="153.43,-201.55 146.01,-204.41 153.59,-206.8 153.43,-201.55"/>
</g>
<!-- RC -->
<g id="node11" class="node">
<title>RC</title>
<path fill="#e3f4e8" stroke="#2e7d4f" stroke-width="1.7" d="M163.55,-52.48C163.55,-52.48 28.68,-52.48 28.68,-52.48 22.68,-52.48 16.68,-46.48 16.68,-40.48 16.68,-40.48 16.68,-12 16.68,-12 16.68,-6 22.68,0 28.68,0 28.68,0 163.55,0 163.55,0 169.55,0 175.55,-6 175.55,-12 175.55,-12 175.55,-40.48 175.55,-40.48 175.55,-46.48 169.55,-52.48 163.55,-52.48"/>
<text xml:space="preserve" text-anchor="start" x="27.76" y="-36.64" font-family="Arial" font-weight="bold" font-size="12.00">7. Check the page again</text>
<text xml:space="preserve" text-anchor="start" x="33.29" y="-20.04" font-family="Arial" font-size="10.00" fill="#4a5565">new snapshot and audit run,</text>
<text xml:space="preserve" text-anchor="start" x="37.47" y="-8.04" font-family="Arial" font-size="10.00" fill="#4a5565">compared with the last run</text>
</g>
<!-- R&#45;&gt;RC -->
<g id="edge11" class="edge">
<title>R&#45;&gt;RC</title>
<path fill="none" stroke="#5a6675" stroke-width="1.4" d="M96.11,-74.85C96.11,-70.77 96.11,-66.57 96.11,-62.44"/>
<polygon fill="#5a6675" stroke="#5a6675" stroke-width="1.4" points="98.74,-62.63 96.11,-55.13 93.49,-62.63 98.74,-62.63"/>
</g>
<!-- RC&#45;&gt;A -->
<g id="edge12" class="edge">
<title>RC&#45;&gt;A</title>
<path fill="none" stroke="#5a6675" stroke-width="1.4" stroke-dasharray="5,2" d="M169.1,-53.32C254.47,-88.27 378.59,-155.63 332.11,-238.68 301.35,-293.65 236.54,-325.15 182.61,-342.59"/>
<polygon fill="#5a6675" stroke="#5a6675" stroke-width="1.4" points="182.11,-339.99 175.73,-344.74 183.67,-345 182.11,-339.99"/>
<text xml:space="preserve" text-anchor="start" x="342.22" y="-204.62" font-family="Arial" font-weight="bold" font-size="11.00" fill="#3b4654"> next round </text>
</g>
</g>
</svg>
