<?xml version="1.0" encoding="UTF-8" standalone="no"?>
<!DOCTYPE svg PUBLIC "-//W3C//DTD SVG 1.1//EN"
 "http://www.w3.org/Graphics/SVG/1.1/DTD/svg11.dtd">
<!-- Generated by graphviz version 16.1.0 (0)
 -->
<!-- Title: G Pages: 1 -->
<svg width="656pt" height="597pt"
 viewBox="0.00 0.00 656.00 597.00" xmlns="http://www.w3.org/2000/svg" xmlns:xlink="http://www.w3.org/1999/xlink">
<g id="graph0" class="graph" transform="scale(1 1) rotate(0) translate(10.8 586.32)">
<title>G</title>
<g id="clust1" class="cluster">
<title>cluster_d</title>
<path fill="#f7f9fb" stroke="#9fb3c8" stroke-dasharray="5,2" d="M20,-338.16C20,-338.16 146,-338.16 146,-338.16 152,-338.16 158,-344.16 158,-350.16 158,-350.16 158,-419.84 158,-419.84 158,-425.84 152,-431.84 146,-431.84 146,-431.84 20,-431.84 20,-431.84 14,-431.84 8,-425.84 8,-419.84 8,-419.84 8,-350.16 8,-350.16 8,-344.16 14,-338.16 20,-338.16"/>
<text xml:space="preserve" text-anchor="start" x="16" y="-418.94" font-family="Arial" font-weight="bold" font-size="11.00" fill="#3b4654">Daily</text>
</g>
<g id="clust2" class="cluster">
<title>cluster_w</title>
<path fill="#f7f9fb" stroke="#9fb3c8" stroke-dasharray="5,2" d="M179,-338.16C179,-338.16 287,-338.16 287,-338.16 293,-338.16 299,-344.16 299,-350.16 299,-350.16 299,-419.84 299,-419.84 299,-425.84 293,-431.84 287,-431.84 287,-431.84 179,-431.84 179,-431.84 173,-431.84 167,-425.84 167,-419.84 167,-419.84 167,-350.16 167,-350.16 167,-344.16 173,-338.16 179,-338.16"/>
<text xml:space="preserve" text-anchor="start" x="175" y="-418.94" font-family="Arial" font-weight="bold" font-size="11.00" fill="#3b4654">Weekly</text>
</g>
<g id="clust3" class="cluster">
<title>cluster_m</title>
<path fill="#f7f9fb" stroke="#9fb3c8" stroke-dasharray="5,2" d="M320,-338.16C320,-338.16 460,-338.16 460,-338.16 466,-338.16 472,-344.16 472,-350.16 472,-350.16 472,-419.84 472,-419.84 472,-425.84 466,-431.84 460,-431.84 460,-431.84 320,-431.84 320,-431.84 314,-431.84 308,-425.84 308,-419.84 308,-419.84 308,-350.16 308,-350.16 308,-344.16 314,-338.16 320,-338.16"/>
<text xml:space="preserve" text-anchor="start" x="316" y="-418.94" font-family="Arial" font-weight="bold" font-size="11.00" fill="#3b4654">Monthly</text>
</g>
<!-- T -->
<g id="node1" class="node">
<title>T</title>
<path fill="#e3f4e8" stroke="#2e7d4f" stroke-width="1.7" d="M299.89,-575.52C299.89,-575.52 166.11,-575.52 166.11,-575.52 160.11,-575.52 154.11,-569.52 154.11,-563.52 154.11,-563.52 154.11,-547.04 154.11,-547.04 154.11,-541.04 160.11,-535.04 166.11,-535.04 166.11,-535.04 299.89,-535.04 299.89,-535.04 305.89,-535.04 311.89,-541.04 311.89,-547.04 311.89,-547.04 311.89,-563.52 311.89,-563.52 311.89,-569.52 305.89,-575.52 299.89,-575.52"/>
<text xml:space="preserve" text-anchor="start" x="191.98" y="-559.68" font-family="Arial" font-weight="bold" font-size="12.00">Schedule fires</text>
<text xml:space="preserve" text-anchor="start" x="165.19" y="-543.08" font-family="Arial" font-size="10.00" fill="#4a5565">per site: daily, weekly, monthly</text>
</g>
<!-- L -->
<g id="node2" class="node">
<title>L</title>
<polygon fill="#fff3d6" stroke="#c77700" stroke-width="1.7" points="233,-504.04 166.83,-486.04 233,-468.04 299.17,-486.04 233,-504.04"/>
<text xml:space="preserve" text-anchor="start" x="200.01" y="-483.44" font-family="Arial" font-weight="bold" font-size="12.00">Which run?</text>
</g>
<!-- T&#45;&gt;L -->
<g id="edge1" class="edge">
<title>T&#45;&gt;L</title>
<path fill="none" stroke="#5a6675" stroke-width="1.4" d="M233,-534.47C233,-528.12 233,-520.97 233,-514.19"/>
<polygon fill="#5a6675" stroke="#5a6675" stroke-width="1.4" points="235.63,-514.27 233,-506.77 230.38,-514.27 235.63,-514.27"/>
</g>
<!-- D1 -->
<g id="node3" class="node">
<title>D1</title>
<polygon fill="#ffffff" stroke="#0b2a4a" stroke-width="1.7" points="147.99,-400.64 18.01,-400.64 18.01,-348.16 147.99,-348.16 147.99,-400.64"/>
<text xml:space="preserve" text-anchor="start" x="45.98" y="-384.8" font-family="Arial" font-weight="bold" font-size="12.00">Health check</text>
<text xml:space="preserve" text-anchor="start" x="40.76" y="-368.2" font-family="Arial" font-size="10.00" fill="#4a5565">robots.txt, sitemap,</text>
<text xml:space="preserve" text-anchor="start" x="29.09" y="-356.2" font-family="Arial" font-size="10.00" fill="#4a5565">status codes, new URLs</text>
</g>
<!-- L&#45;&gt;D1 -->
<g id="edge2" class="edge">
<title>L&#45;&gt;D1</title>
<path fill="none" stroke="#5a6675" stroke-width="1.4" d="M215.29,-472.15C200.5,-461.39 178.86,-445.63 160,-431.84 148.91,-423.73 136.93,-414.96 125.8,-406.8"/>
<polygon fill="#5a6675" stroke="#5a6675" stroke-width="1.4" points="127.56,-404.84 119.96,-402.52 124.46,-409.07 127.56,-404.84"/>
<text xml:space="preserve" text-anchor="start" x="188.08" y="-444.14" font-family="Arial" font-weight="bold" font-size="11.00" fill="#3b4654"> daily </text>
</g>
<!-- W1 -->
<g id="node4" class="node">
<title>W1</title>
<polygon fill="#ffffff" stroke="#0b2a4a" stroke-width="1.7" points="288.83,-400.64 177.17,-400.64 177.17,-348.16 288.83,-348.16 288.83,-400.64"/>
<text xml:space="preserve" text-anchor="start" x="202.66" y="-384.8" font-family="Arial" font-weight="bold" font-size="12.00">Page audit</text>
<text xml:space="preserve" text-anchor="start" x="188.25" y="-368.2" font-family="Arial" font-size="10.00" fill="#4a5565">all rules on changed</text>
<text xml:space="preserve" text-anchor="start" x="189.36" y="-356.2" font-family="Arial" font-size="10.00" fill="#4a5565">and sampled pages</text>
</g>
<!-- L&#45;&gt;W1 -->
<g id="edge3" class="edge">
<title>L&#45;&gt;W1</title>
<path fill="none" stroke="#5a6675" stroke-width="1.4" d="M233,-467.42C233,-452.17 233,-429.63 233,-410.68"/>
<polygon fill="#5a6675" stroke="#5a6675" stroke-width="1.4" points="235.63,-410.77 233,-403.27 230.38,-410.77 235.63,-410.77"/>
<text xml:space="preserve" text-anchor="start" x="233" y="-444.14" font-family="Arial" font-weight="bold" font-size="11.00" fill="#3b4654"> weekly </text>
</g>
<!-- M1 -->
<g id="node5" class="node">
<title>M1</title>
<polygon fill="#ffffff" stroke="#0b2a4a" stroke-width="1.7" points="462.49,-400.64 317.51,-400.64 317.51,-348.16 462.49,-348.16 462.49,-400.64"/>
<text xml:space="preserve" text-anchor="start" x="328.82" y="-384.8" font-family="Arial" font-weight="bold" font-size="12.00">Full audit + keywords</text>
<text xml:space="preserve" text-anchor="start" x="336.08" y="-368.2" font-family="Arial" font-size="10.00" fill="#4a5565">all pages, keyword map,</text>
<text xml:space="preserve" text-anchor="start" x="328.59" y="-356.2" font-family="Arial" font-size="10.00" fill="#4a5565">review dates, speed (CrUX)</text>
</g>
<!-- L&#45;&gt;M1 -->
<g id="edge4" class="edge">
<title>L&#45;&gt;M1</title>
<path fill="none" stroke="#5a6675" stroke-width="1.4" d="M252.21,-472.78C261.31,-466.9 272.28,-459.7 282,-453.04 303.69,-438.17 327.46,-421.17 347.16,-406.87"/>
<polygon fill="#5a6675" stroke="#5a6675" stroke-width="1.4" points="348.54,-409.11 353.06,-402.58 345.45,-404.86 348.54,-409.11"/>
<text xml:space="preserve" text-anchor="start" x="299.89" y="-444.14" font-family="Arial" font-weight="bold" font-size="11.00" fill="#3b4654"> monthly </text>
</g>
<!-- DF -->
<g id="node7" class="node">
<title>DF</title>
<polygon fill="#ffffff" stroke="#0b2a4a" stroke-width="1.7" points="389.76,-314.16 220.24,-314.16 220.24,-261.68 389.76,-261.68 389.76,-314.16"/>
<text xml:space="preserve" text-anchor="start" x="231.32" y="-298.32" font-family="Arial" font-weight="bold" font-size="12.00">Compare with the last run</text>
<text xml:space="preserve" text-anchor="start" x="251.63" y="-281.72" font-family="Arial" font-size="10.00" fill="#4a5565">new, fixed and returning</text>
<text xml:space="preserve" text-anchor="start" x="287.77" y="-269.72" font-family="Arial" font-size="10.00" fill="#4a5565">findings</text>
</g>
<!-- D1&#45;&gt;DF -->
<g id="edge5" class="edge">
<title>D1&#45;&gt;DF</title>
<path fill="none" stroke="#5a6675" stroke-width="1.4" d="M138.23,-347.31C145.5,-344.11 152.9,-340.98 160,-338.16 177.52,-331.2 196.45,-324.32 214.68,-318"/>
<polygon fill="#5a6675" stroke="#5a6675" stroke-width="1.4" points="215.31,-320.56 221.55,-315.64 213.61,-315.6 215.31,-320.56"/>
</g>
<!-- W1&#45;&gt;DF -->
<g id="edge6" class="edge">
<title>W1&#45;&gt;DF</title>
<path fill="none" stroke="#5a6675" stroke-width="1.4" d="M254.99,-347.59C261.84,-339.56 269.48,-330.59 276.7,-322.13"/>
<polygon fill="#5a6675" stroke="#5a6675" stroke-width="1.4" points="278.65,-323.88 281.52,-316.47 274.66,-320.48 278.65,-323.88"/>
</g>
<!-- M1&#45;&gt;DF -->
<g id="edge7" class="edge">
<title>M1&#45;&gt;DF</title>
<path fill="none" stroke="#5a6675" stroke-width="1.4" d="M364.04,-347.59C355.79,-339.4 346.56,-330.23 337.9,-321.62"/>
<polygon fill="#5a6675" stroke="#5a6675" stroke-width="1.4" points="339.77,-319.78 332.6,-316.35 336.07,-323.5 339.77,-319.78"/>
</g>
<!-- SC -->
<g id="node6" class="node">
<title>SC</title>
<polygon fill="#e4eefb" stroke="#0b5cad" stroke-width="1.7" points="634.77,-394.64 491.23,-394.64 491.23,-354.16 634.77,-354.16 634.77,-394.64"/>
<text xml:space="preserve" text-anchor="start" x="502.31" y="-378.8" font-family="Arial" font-weight="bold" font-size="12.00">Search Console sync</text>
<text xml:space="preserve" text-anchor="start" x="503.53" y="-362.2" font-family="Arial" font-size="10.00" fill="#4a5565">daily rows (2&#45;3 days delay)</text>
</g>
<!-- SC&#45;&gt;DF -->
<g id="edge8" class="edge">
<title>SC&#45;&gt;DF</title>
<path fill="none" stroke="#5a6675" stroke-width="1.4" d="M518.05,-353.36C505.53,-348.1 491.84,-342.65 479,-338.16 453.42,-329.21 425.31,-320.7 399.28,-313.35"/>
<polygon fill="#5a6675" stroke="#5a6675" stroke-width="1.4" points="400.13,-310.86 392.2,-311.37 398.72,-315.92 400.13,-310.86"/>
</g>
<!-- P -->
<g id="node8" class="node">
<title>P</title>
<polygon fill="#ffffff" stroke="#0b2a4a" stroke-width="1.7" points="385.77,-230.68 224.23,-230.68 224.23,-190.2 385.77,-190.2 385.77,-230.68"/>
<text xml:space="preserve" text-anchor="start" x="235.31" y="-214.84" font-family="Arial" font-weight="bold" font-size="12.00">Score and rank the work</text>
<text xml:space="preserve" text-anchor="start" x="243.86" y="-198.24" font-family="Arial" font-size="10.00" fill="#4a5565">impact x confidence ÷ effort</text>
</g>
<!-- DF&#45;&gt;P -->
<g id="edge9" class="edge">
<title>DF&#45;&gt;P</title>
<path fill="none" stroke="#5a6675" stroke-width="1.4" d="M305,-260.94C305,-254.41 305,-247.36 305,-240.68"/>
<polygon fill="#5a6675" stroke="#5a6675" stroke-width="1.4" points="307.63,-240.88 305,-233.38 302.38,-240.88 307.63,-240.88"/>
</g>
<!-- Q -->
<g id="node9" class="node">
<title>Q</title>
<polygon fill="#fff3d6" stroke="#c77700" stroke-width="1.7" points="305,-159.2 254.57,-127.44 305,-95.68 355.43,-127.44 305,-159.2"/>
<text xml:space="preserve" text-anchor="start" x="286.99" y="-129.64" font-family="Arial" font-weight="bold" font-size="12.00">Needs</text>
<text xml:space="preserve" text-anchor="start" x="283.67" y="-117.64" font-family="Arial" font-weight="bold" font-size="12.00">action?</text>
</g>
<!-- P&#45;&gt;Q -->
<g id="edge10" class="edge">
<title>P&#45;&gt;Q</title>
<path fill="none" stroke="#5a6675" stroke-width="1.4" d="M305,-189.42C305,-183.3 305,-176.33 305,-169.35"/>
<polygon fill="#5a6675" stroke="#5a6675" stroke-width="1.4" points="307.63,-169.52 305,-162.02 302.38,-169.52 307.63,-169.52"/>
</g>
<!-- OK -->
<g id="node10" class="node">
<title>OK</title>
<path fill="#e3f4e8" stroke="#2e7d4f" stroke-width="1.7" d="M274.76,-44.24C274.76,-44.24 187.24,-44.24 187.24,-44.24 181.24,-44.24 175.24,-38.24 175.24,-32.24 175.24,-32.24 175.24,-20.24 175.24,-20.24 175.24,-14.24 181.24,-8.24 187.24,-8.24 187.24,-8.24 274.76,-8.24 274.76,-8.24 280.76,-8.24 286.76,-14.24 286.76,-20.24 286.76,-20.24 286.76,-32.24 286.76,-32.24 286.76,-38.24 280.76,-44.24 274.76,-44.24"/>
<text xml:space="preserve" text-anchor="start" x="186.32" y="-23.64" font-family="Arial" font-weight="bold" font-size="12.00">Save trend only</text>
</g>
<!-- Q&#45;&gt;OK -->
<g id="edge11" class="edge">
<title>Q&#45;&gt;OK</title>
<path fill="none" stroke="#5a6675" stroke-width="1.4" d="M288.94,-104.92C277.47,-89.54 262,-68.79 249.93,-52.61"/>
<polygon fill="#5a6675" stroke="#5a6675" stroke-width="1.4" points="252.16,-51.22 245.57,-46.78 247.95,-54.36 252.16,-51.22"/>
<text xml:space="preserve" text-anchor="start" x="270.22" y="-71.78" font-family="Arial" font-weight="bold" font-size="11.00" fill="#b42318"> No </text>
</g>
<!-- AL -->
<g id="node11" class="node">
<title>AL</title>
<polygon fill="#ffffff" stroke="#0b2a4a" stroke-width="1.7" points="441.77,-52.48 316.23,-52.48 316.23,0 441.77,0 441.77,-52.48"/>
<text xml:space="preserve" text-anchor="start" x="327.31" y="-36.64" font-family="Arial" font-weight="bold" font-size="12.00">Create work items</text>
<text xml:space="preserve" text-anchor="start" x="333.69" y="-20.04" font-family="Arial" font-size="10.00" fill="#4a5565">in the content queue</text>
<text xml:space="preserve" text-anchor="start" x="334.96" y="-8.04" font-family="Arial" font-size="10.00" fill="#4a5565">+ alert or Emitii task</text>
</g>
<!-- Q&#45;&gt;AL -->
<g id="edge12" class="edge">
<title>Q&#45;&gt;AL</title>
<path fill="none" stroke="#5a6675" stroke-width="1.4" d="M321.06,-104.92C330.69,-92.01 343.14,-75.32 354.03,-60.72"/>
<polygon fill="#5a6675" stroke="#5a6675" stroke-width="1.4" points="355.91,-62.59 358.29,-55 351.7,-59.45 355.91,-62.59"/>
<text xml:space="preserve" text-anchor="start" x="348.63" y="-71.78" font-family="Arial" font-weight="bold" font-size="11.00" fill="#2e7d4f"> Yes </text>
</g>
</g>
</svg>
